<svg width="32" height="32" viewBox="0 0 32 32" fill="none" xmlns="http://www.w3.org/2000/svg">
<g clip-path="url(#clip0_37_2334)">
<rect width="32" height="32" rx="5.33333" fill="url(#paint0_linear_37_2334)"/>
<g filter="url(#filter0_d_37_2334)">
<path fill-rule="evenodd" clip-rule="evenodd" d="M10.6358 6.15796V6.15796L12.0685 7.80371L9.80632 9.77417L8.37316 8.12884C8.11181 7.8288 7.98035 7.43722 8.00771 7.04025C8.03507 6.64328 8.219 6.27343 8.51905 6.01208C8.81909 5.75072 9.21067 5.61927 9.60764 5.64662C10.0045 5.67398 10.3745 5.85805 10.6358 6.15796ZM11.12 11.2823L13.3819 9.31197L23.7873 21.2564V21.2564C24.3325 21.8827 24.7133 22.6352 24.895 23.4455L25.3082 25.2866L23.5413 24.6248C22.7636 24.3337 22.0705 23.8535 21.5248 23.2275V23.2275L11.12 11.2823ZM12.1441 4.84455C11.5344 4.14453 10.6713 3.71519 9.74515 3.65136C8.81901 3.58753 7.90543 3.89422 7.20542 4.50398C6.5054 5.11373 6.07627 5.97659 6.01244 6.90274C5.94861 7.82889 6.25531 8.74246 6.86506 9.44248L20.0167 24.5411C20.7806 25.4176 21.751 26.0902 22.8398 26.4978V26.4978L26.338 27.8081C26.6819 27.9369 27.0687 27.8668 27.3456 27.6256C27.6224 27.3845 27.7449 27.0109 27.6645 26.6526L26.8465 23.008V23.008C26.5921 21.8735 26.0592 20.8201 25.2958 19.9432L12.1441 4.84455Z" fill="white"/>
<path fill-rule="evenodd" clip-rule="evenodd" d="M8.31128 27.3564C8.31128 26.8042 8.75899 26.3564 9.31128 26.3564H13.3113C13.8636 26.3564 14.3113 26.8042 14.3113 27.3564C14.3113 27.9087 13.8636 28.3564 13.3113 28.3564H9.31128C8.75899 28.3564 8.31128 27.9087 8.31128 27.3564Z" fill="white"/>
<path fill-rule="evenodd" clip-rule="evenodd" d="M4.31128 27.3564C4.31128 26.8042 4.75899 26.3564 5.31128 26.3564L6.64461 26.3564C7.1969 26.3564 7.64461 26.8042 7.64461 27.3564C7.64461 27.9087 7.1969 28.3564 6.64461 28.3564L5.31128 28.3564C4.75899 28.3564 4.31128 27.9087 4.31128 27.3564Z" fill="white"/>
<path d="M19.7712 26.3564C19.9099 26.3564 20.0446 26.4003 20.1607 26.4761C20.4656 26.675 20.8716 26.9078 21.1491 27.0648C21.687 27.2868 22.2634 27.4906 23.1187 27.8138V27.8138C23.4111 27.9243 23.332 28.3564 23.0195 28.3564H15.9779C15.4256 28.3564 14.9779 27.9087 14.9779 27.3564C14.9779 26.8042 15.4256 26.3564 15.9779 26.3564H19.7712Z" fill="white"/>
</g>
</g>
<defs>
<filter id="filter0_d_37_2334" x="1.64461" y="2.30973" width="28.7108" height="30.0467" filterUnits="userSpaceOnUse" color-interpolation-filters="sRGB">
<feFlood flood-opacity="0" result="BackgroundImageFix"/>
<feColorMatrix in="SourceAlpha" type="matrix" values="0 0 0 0 0 0 0 0 0 0 0 0 0 0 0 0 0 0 127 0" result="hardAlpha"/>
<feOffset dy="1.33333"/>
<feGaussianBlur stdDeviation="1.33333"/>
<feComposite in2="hardAlpha" operator="out"/>
<feColorMatrix type="matrix" values="0 0 0 0 0 0 0 0 0 0 0 0 0 0 0 0 0 0 0.25 0"/>
<feBlend mode="normal" in2="BackgroundImageFix" result="effect1_dropShadow_37_2334"/>
<feBlend mode="normal" in="SourceGraphic" in2="effect1_dropShadow_37_2334" result="shape"/>
</filter>
<linearGradient id="paint0_linear_37_2334" x1="1.33333" y1="-1.04308e-06" x2="27.3333" y2="32" gradientUnits="userSpaceOnUse">
<stop stop-color="#F8EDEB"/>
<stop offset="1" stop-color="#FFB5A7"/>
</linearGradient>
<clipPath id="clip0_37_2334">
<rect width="32" height="32" rx="5.33333" fill="white"/>
</clipPath>
</defs>
</svg>
